# xmcd
#
# Track frame offsets:
#	150
#	14392
#	27494
#	39352
#	56280
#	66223
#	77288
#	88376
#	106942
#	121421
#	133739
#	146631
#	154475
#	167062
#
# Disc length: 2394 seconds
#
# Revision: 1
# Processed by: cddbd v1.5.2PL0 Copyright (c) Steve Scherf et al.
# Submitted via: audiograbber 1.83.01
#
DISCID=ba09580e
DTITLE=Cold Creek - Faithfully
DYEAR=2006
DGENRE=Bluegrass
TTITLE0=Five Finger Discount
TTITLE1=Midnight Rider
TTITLE2=Grey Skies
TTITLE3=Faithfully
TTITLE4=Shady Grove
TTITLE5=Bitter Gap
TTITLE6=Darlin' Think of What You've Done
TTITLE7=Wait a Minute
TTITLE8=Bill's Reel
TTITLE9=Live and Let Live
TTITLE10=Standing in the Middle of the Highway
TTITLE11=Chuck in the Bush
TTITLE12=Old Freight Train
TTITLE13=Hallelujah
EXTD=
EXTT0=
EXTT1=
EXTT2=
EXTT3=
EXTT4=
EXTT5=
EXTT6=
EXTT7=
EXTT8=
EXTT9=
EXTT10=
EXTT11=
EXTT12=
EXTT13=
PLAYORDER=
